<svg xmlns="http://www.w3.org/2000/svg" width="64" height="64" viewBox="0 0 64 64" class="usa-banner__icon"><path fill="#2378C3" d="M32 0c17.7 0 32 14.3 32 32S49.7 64 32 64 0 49.7 0 32 14.3 0 32 0zm22.1 32.1c0-1.1-.9-2-2-2H34.8l7.9-12c.6-.9.3-2.2-.6-2.8-.9-.6-2.2-.3-2.8.6l-2 3.1-2-3.1c-.6-.9-1.9-1.2-2.8-.6-.9.6-1.2 1.9-.6 2.8l7.9 12H11.9c-1.1 0-2 .9-2 2s.9 2 2 2h17.9L22 44.2c-.6.9-.3 2.2.6 2.8.9.6 2.2.3 2.8-.6l2-3.1 2 3.1c.6.9 1.9 1.2 2.8.6.9-.6 1.2-1.9.6-2.8l-7.9-12h17.9c1.1 0 2-.9 2-2z"/></svg>
